<svg width="960" height="1200" viewBox="0 0 960 1200" fill="none" xmlns="http://www.w3.org/2000/svg" role="img" aria-labelledby="title desc">
  <title id="title">Tennis court journal map</title>
  <desc id="desc">A stylized tennis court with note marks and route lines.</desc>
  <rect width="960" height="1200" fill="#eef3ec"/>
  <rect x="82" y="80" width="796" height="1040" rx="18" fill="#2f7d64"/>
  <rect x="134" y="142" width="692" height="916" rx="8" fill="#3e9879"/>
  <path d="M134 600H826" stroke="#f7f8f5" stroke-width="10"/>
  <path d="M480 142V1058" stroke="#f7f8f5" stroke-width="10"/>
  <path d="M134 344H826" stroke="#f7f8f5" stroke-width="8"/>
  <path d="M134 856H826" stroke="#f7f8f5" stroke-width="8"/>
  <path d="M306 344V856" stroke="#f7f8f5" stroke-width="8"/>
  <path d="M654 344V856" stroke="#f7f8f5" stroke-width="8"/>
  <path d="M134 142H826V1058H134V142Z" stroke="#f7f8f5" stroke-width="12"/>
  <path d="M140 600H820" stroke="#d8e3d5" stroke-width="3" stroke-dasharray="12 16"/>
  <path d="M257 870C338 759 469 718 642 746" stroke="#d4b24c" stroke-width="12" stroke-linecap="round"/>
  <path d="M691 286C582 356 511 454 489 579" stroke="#c84f3d" stroke-width="10" stroke-linecap="round" stroke-dasharray="2 24"/>
  <path d="M282 278C387 326 436 396 430 488" stroke="#f7f8f5" stroke-width="7" stroke-linecap="round"/>
  <circle cx="257" cy="870" r="20" fill="#f0d65e" stroke="#171a16" stroke-width="5"/>
  <circle cx="642" cy="746" r="17" fill="#f0d65e" stroke="#171a16" stroke-width="5"/>
  <circle cx="691" cy="286" r="18" fill="#f0d65e" stroke="#171a16" stroke-width="5"/>
  <g opacity="0.18">
    <path d="M91 1030L872 176" stroke="#171a16" stroke-width="2"/>
    <path d="M108 1094L890 239" stroke="#171a16" stroke-width="2"/>
    <path d="M65 954L846 100" stroke="#171a16" stroke-width="2"/>
  </g>
  <g transform="translate(650 900) rotate(-7)">
    <rect width="176" height="124" rx="8" fill="#ffffff" stroke="#dbe0d8" stroke-width="5"/>
    <path d="M26 38H148" stroke="#cfd7cc" stroke-width="5" stroke-linecap="round"/>
    <path d="M26 62H132" stroke="#cfd7cc" stroke-width="5" stroke-linecap="round"/>
    <path d="M26 86H108" stroke="#cfd7cc" stroke-width="5" stroke-linecap="round"/>
    <path d="M128 20L154 46" stroke="#3d6fa8" stroke-width="8" stroke-linecap="round"/>
  </g>
</svg>
